<svg xmlns="http://www.w3.org/2000/svg" version="1.1" viewBox="0 0 1536 1024" width="1536" height="1024">
<path transform="translate(556,398)" d="m0 0h13l13 4 10 6 10 8 7 8 6 7 7 4 4 1h342l9-3 10-9 11-12 11-8 9-4 10-2h12l12 3 11 6 14 14 4 7-37 1-10 5-6 10-1 11 3 10 7 8 8 3 39 1-7 11-7 7-12 8-13 4h-19l-12-3-11-6-10-9-11-12-8-4-52-1h-282l-17 1-10 6-9 10-5 5-10 7-13 5-4 1h-19l-13-4-10-6-10-9-6-9v-2l38-1 9-4 6-5 4-10v-9l-3-8-6-7-10-4-37-1 2-4 12-13 10-7 12-5z" fill="#2C2E2B"/>
<path transform="translate(752,274)" d="m0 0h33l28 3 36 8 24 8 29 12 29 14 45 24 15 5 31 3 40 3 34 4 33 6 22 6 20 7 25 12 15 10 11 9 9 12 4 9 1 4v10l-4 10-8 9-9 5-10 3-21 1-4-2 18-2 11-4 8-6 5-6 2-6v-9l-4-9-9-10-15-10-23-11-27-9-24-6-28-5-33-4-40-2-33-1-9-2-15-10-17-11-21-12-16-8-18-8-25-9-26-7-23-4-22-2h-43l-31 3-37 7-31 9-24 9-20 8h-3v2l6 1 4 2v2h-27l-89-3-101-2-24-1v-1l90-4 34-2 34-4 30-5 24-6 42-13 15-5 34-9 38-7 21-2z" fill="#98CD19"/>
<path transform="translate(753,308)" d="m0 0h36l24 2 30 5 22 6 25 10 22 11 21 14 9 7-1 2h-181l-29-3-29-6-29-9-19-8-7-3 3-3 18-8 18-6 31-7 23-3z" fill="#2C2D2B"/>
<path transform="translate(499,356)" d="m0 0h67l29 2 22 3 15 4 24 9 19 8 19 6 29 6 26 3 17 1 141 2 55 2 25 2v2l-13 3-15 2-27 2-54 2-84 2-90 1h-21l-12-3-23-12-22-12-14-6-26-8-21-4-34-3-16-1-72-2-96-2v-1l14-2 24-2 46-2z" fill="#98CD19"/>
<path transform="translate(882,530)" d="m0 0h89l-2 4-15 16-3 3-66 1-6 3-2 3v6l5 3 59 1 10 3 8 6 4 9v13l-4 10-8 9-12 6-8 2h-96l2-4 15-16 74-1 6-4 1-2v-7l-5-3-58-1-10-3-10-9-3-8v-9l4-11 6-8 7-6 12-5z" fill="#2C2E2B"/>
<path transform="translate(593,531)" d="m0 0h95l-3 5-8 8-7 8-1 1-70 1-6 4-1 2v6l6 3 56 1 12 3 9 8 3 7v14l-4 10-5 6-9 6-13 4h-95l6-7 7-7 5-6 69-1 6-4 1-2v-7l-3-2-6-1-53-1-11-4-6-5-4-8-1-3v-9l3-10 6-8 8-7 9-4z" fill="#98CD19"/>
<path transform="translate(437,530)" d="m0 0h78l10 2 8 4 5 5 5 8 1 3v12l-4 12-7 9-10 7-7 3h-3l12 17 11 15v1h-34l-10-13-9-13v-2h-38l-1 8-5 20h-30l1-8 10-42 73-1 11-2 6-4 3-4v-9l-3-3-3-1-45-1-43-1 2-4 13-14z" fill="#98CD19"/>
<path transform="translate(1094,530)" d="m0 0h100l-6 8-9 9-5 6h-58l-2 12-1 4h66l-6 8-8 8-4 5h-54l-4 18h74l-6 7-7 8-5 5h-88l2-11 16-69 4-17z" fill="#2C2E2B"/>
<path transform="translate(1214,530)" d="m0 0h69l9 2 9 6 6 7 2 5 1 12-3 12-6 9-9 8-9 4-9 2h-52l-1 9-5 20-1 2h-27l1-8 10-43 1-1 71-1 6-3 4-8-1-6-4-3-4-1-77-1 3-5 11-12z" fill="#2E302B"/>
<path transform="translate(265,531)" d="m0 0h95l-2 12-2 10-64 1-4 17 54 1-2 13-2 6h-55l-4 20-4 17h-31l1-10 19-82z" fill="#98CD19"/>
<path transform="translate(808,530)" d="m0 0v3l-13 14-5 6h-27l-16 66-2 9h-32l2-11 15-64-39-1 2-4 13-14 2-3z" fill="#98CD19"/>
<path transform="translate(990,530)" d="m0 0h96l-6 8-8 8-5 6h-26l-4 19-13 54-1 3h-28l4-20 12-51 2-5h-42l6-8 7-7z" fill="#2D2E2B"/>
<path transform="translate(378,531)" d="m0 0h32l-4 18-18 76-1 3h-31l2-12 16-70z" fill="#98CD19"/>
<path transform="translate(1107,390)" d="m0 0h11l19 3 21 6 20 8 15 9 12 9v2h-39l-13-3-13-7-14-11-8-7-11-8z" fill="#2E2F2B"/>
<path transform="translate(503,392)" d="m0 0h12l-5 5-9 6-10 1h-27l-103-2-27-1-12-1v-1l55-3 62-2z" fill="#98CD19"/>
<path transform="translate(645,663)" d="m0 0h24l8 4 3 4 1 3v8l-5 8-2 1 1 4 7 12v2h-11l-8-13v-2h-8v15h-10zm10 9v13h12l4-4-1-7-3-2z" fill="#2E302B"/>
<path transform="translate(949,663)" d="m0 0h31v9h-21v9h18v9h-18v10h21v9h-31z" fill="#2C2D2B"/>
<path transform="translate(567,663)" d="m0 0h31v9h-21v9h18v9h-18v10h21v9h-31z" fill="#2C2D2B"/>
<path transform="translate(1037,662)" d="m0 0 11 1 8 5-2 5-1 2-13-3-6 2v5l12 3 8 4 3 5v8l-4 7-6 3-7 1-12-2-6-4 1-4 2-3 9 2h12l-1-6-17-6-5-6v-9l4-6 5-3z" fill="#32362B"/>
<path transform="translate(501,662)" d="m0 0 12 1 8 5-3 7-4-1-3-1h-13v6l12 3 8 4 3 4v11l-5 6-5 2h-15l-8-4-2-3 3-5 9 2h11l1-5-10-4-9-4-3-4-1-8 2-5 6-5z" fill="#30342B"/>
<path transform="translate(884,662)" d="m0 0 9 1 8 4v4l-4 4-4-1-3-1h-8l-6 4-3 6v7l3 6 5 3h10l6-3 6 5-4 5-6 3-8 1-10-2-8-6-5-10v-11l3-8 4-5 9-5z" fill="#31342B"/>
<path transform="translate(719,663)" d="m0 0h11l12 30 12-30h11l-1 5-11 25-6 15-1 1h-8l-4-8-15-37z" fill="#30332B"/>
<path transform="translate(476,421)" d="m0 0h7l1 9h-69l-43-1-34-2v-1l32-2 60-2z" fill="#98CD19"/>
<path transform="translate(286,682)" d="m0 0h136l21 1 6 1v1l-6 1h-177l-14-1v-1l10-1z" fill="#98CD19"/>
<path transform="translate(466,451)" d="m0 0h11l5 2 1 6h-74l-47-2-6-1v-1l38-2z" fill="#98CD19"/>
<path transform="translate(1124,682)" d="m0 0h118l29 1 13 1v1l-14 1h-167l-12-1v-1l8-1z" fill="#98CD19"/>
<path transform="translate(808,663)" d="m0 0h10v46h-10z" fill="#2F312D"/>
<path transform="translate(319,399)" d="m0 0" fill="#98CD19"/>
</svg>